# xmcd
#
# Track frame offsets:
# 183
# 11575
# 19585
# 31385
# 54795
# 91120
# 113283
# 134820
# 188633
# 217983
# 234370
# 251370
# 266340
# 281158
# 300175
# 313695
#
# Disc length: 4447 seconds
#
# Revision: 0
# Processed by: cddbd v1.4PL0 Copyright (c) Steve Scherf et al.
# Submitted via: Audion 3.0.2 (http://www.panic.com/audion/)
#
DISCID=c0115d10
DTITLE=Di Gojim - Fun Sjtetl un Sjtets
DYEAR=1900
DGENRE=
TTITLE0=Doina invirtita
TTITLE1=Suite de Mutenie
TTITLE2=Batrineasca
TTITLE3=Rumenye, Rumenye
TTITLE4=Araber Tantz
TTITLE5=Dos Keshenever Shtikele
TTITLE6=di sapozhkelech
TTITLE7=oyf di felder
TTITLE8=mechuteyneste mayne
TTITLE9=in ades
TTITLE10=second avenue square dance
TTITLE11=motl der operator
TTITLE12=mayn rue platz
TTITLE13=a farschwarzter fojgl doina un hora
TTITLE14=di grine kuzine
TTITLE15=wot ken you makh? ez is amerike!
EXTD=
EXTT0=
EXTT1=
EXTT2=
EXTT3=
EXTT4=
EXTT5=
EXTT6=
EXTT7=
EXTT8=
EXTT9=
EXTT10=
EXTT11=
EXTT12=
EXTT13=
EXTT14=
EXTT15=
PLAYORDER=
